<svg viewBox="0 0 72 72" xmlns="http://www.w3.org/2000/svg">
  <defs>
    <linearGradient id="xv-grad-1" x1="0%" y1="0%" x2="100%" y2="100%">
      <stop offset="0%" stop-color="#1e1b4b" />
      <stop offset="55%" stop-color="#1e40af" />
      <stop offset="100%" stop-color="#2563eb" />
    </linearGradient>
    <linearGradient id="xv-grad-2" x1="0%" y1="0%" x2="100%" y2="100%">
      <stop offset="0%" stop-color="#2563eb" />
      <stop offset="100%" stop-color="#60a5fa" />
    </linearGradient>
    <linearGradient id="xv-grad-3" x1="0%" y1="0%" x2="100%" y2="100%">
      <stop offset="0%" stop-color="#7dd3fc" />
      <stop offset="100%" stop-color="#bae6fd" />
    </linearGradient>
    <linearGradient id="xv-bg" x1="0%" y1="0%" x2="100%" y2="100%">
      <stop offset="0%" stop-color="#ffffff" />
      <stop offset="100%" stop-color="#e0e7ff" />
    </linearGradient>
  </defs>

  <rect width="72" height="72" rx="14" fill="url(#xv-bg)" />

  <path d="M16 10 Q14 8 17 8 L23 8 Q26 8 26 11 L29 50 Q29 58 22 60 Q14 60 14 53 Q14 50 17 50 Q20 50 20 52 L20 53 L19 13 Q19 11 17 11 Z" fill="url(#xv-grad-1)" />
  <path d="M30 10 Q28 8 31 8 L37 8 Q40 8 40 11 L43 56 Q43 65 35 66 Q26 66 26 58 Q26 55 29 55 Q32 55 32 57 L32 58 L33 13 Q33 11 31 11 Z" fill="url(#xv-grad-2)" />
  <path d="M44 10 Q42 8 45 8 L51 8 Q54 8 54 11 L57 48 Q57 56 50 58 Q42 58 42 51 Q42 48 45 48 Q48 48 48 50 L48 51 L47 13 Q47 11 45 11 Z" fill="url(#xv-grad-3)" />
</svg>
